<svg width="105" height="105" viewBox="0 0 105 105" fill="none" xmlns="http://www.w3.org/2000/svg">
<g clip-path="url(#clip0_91_1420)">
<path fill-rule="evenodd" clip-rule="evenodd" d="M95.1717 63.4053C95.1283 63.4053 95.0849 63.406 95.0409 63.406V70.0932C95.0849 70.0924 95.1283 70.0916 95.1717 70.091V63.4053Z" fill="#007934"/>
<path fill-rule="evenodd" clip-rule="evenodd" d="M8.30042 92.906C8.32135 92.8971 8.34303 92.8881 8.36396 92.8793V72.7574H8.30042V92.906Z" fill="#007934"/>
<path fill-rule="evenodd" clip-rule="evenodd" d="M94.7943 63.3198C94.6463 63.3093 94.5409 63.2967 94.4363 63.2967C91.7228 63.2967 89.0093 63.2669 86.2968 63.3183C85.365 63.3362 84.4132 63.465 83.5122 63.7025C80.9401 64.3791 78.8152 65.6901 77.9516 68.358C77.6151 69.3973 77.4715 70.5318 77.4402 71.6283C77.375 73.8757 78.1281 75.8232 79.9785 77.2376C81.7126 78.5618 83.4763 79.8482 85.1901 81.1986C86.2137 82.0047 87.2357 82.837 88.127 83.7803C88.853 84.5499 88.5249 85.5639 87.5095 85.9026C86.9218 86.0991 86.2705 86.1751 85.6462 86.1833C83.2176 86.2145 80.789 86.1959 78.3598 86.1959H77.6764V93.0274C81.106 93.0274 84.494 93.0632 87.8802 93.0066C88.9196 92.9894 89.9671 92.778 90.9886 92.5555C93.2227 92.0701 94.9027 90.8039 95.9391 88.7664C96.8012 87.0721 97.0554 85.246 96.8783 83.3671C96.7413 81.9184 96.3009 80.4988 95.1764 79.5757C92.9579 77.7541 90.5945 76.109 88.3087 74.3678C87.4085 73.6821 86.4925 72.9965 85.6993 72.197C84.9036 71.3953 85.2775 70.4618 86.3968 70.2481C86.6945 70.1916 87.0063 70.1953 87.312 70.1946C89.5873 70.1901 91.8633 70.1922 94.1386 70.1922H94.7943V63.3198Z" fill="#007934"/>
<path fill-rule="evenodd" clip-rule="evenodd" d="M75.4626 63.3354H67.7642V74.6254H61.6719V63.296H53.9317V93.058H61.6614V81.8291H67.7574V93.0803H75.4626V63.3354Z" fill="#007934"/>
<path fill-rule="evenodd" clip-rule="evenodd" d="M16.2966 86.8554V92.886C16.3332 92.8854 16.3698 92.8854 16.4072 92.8846V86.8369H22.6131V93.0491H30.3078C30.3078 86.254 30.3586 79.5044 30.2823 72.7561C30.2539 70.1834 29.3552 67.8497 27.5137 65.9558C25.0485 63.4211 21.9641 62.6179 18.5366 62.8256C15.1728 63.0288 12.3539 64.3025 10.3575 67.0986C8.98625 69.0184 8.52641 71.2092 8.52491 73.5221C8.52267 79.8387 8.52417 86.155 8.52417 92.4714V93.0551H16.1979C16.1979 91.1665 16.1948 89.3174 16.2024 87.4681C16.203 87.2642 16.2637 87.0594 16.2966 86.8554Z" fill="#007934"/>
<path fill-rule="evenodd" clip-rule="evenodd" d="M51.4642 70.3044C51.5031 70.3029 51.5428 70.3066 51.5802 70.2984C51.5913 70.2962 51.6041 70.2641 51.6041 70.2456C51.6049 68.025 51.607 65.8036 51.5981 63.583C51.5973 63.4997 51.4889 63.4169 51.4306 63.3337C49.201 63.35 46.9653 63.2636 44.7439 63.4058C41.2962 63.6261 38.3891 65.1046 36.0757 67.6506C31.8198 72.3337 31.0011 77.7843 32.9736 83.6019C34.6177 88.4489 38.0894 91.5747 43.1558 92.7629C45.893 93.4046 48.682 92.975 51.4621 93.0606V85.9388C51.1674 85.9388 50.9312 85.9402 50.6942 85.9388C49.4036 85.9253 48.1085 85.9737 46.8224 85.8858C43.4825 85.6588 41.0666 83.7821 40.3825 80.7918C40.1238 79.6618 40.0393 78.4543 40.1066 77.2953C40.3436 73.2009 43.063 70.6125 47.1821 70.4667C48.3845 70.4243 49.589 70.4615 50.7928 70.4443C51.017 70.4406 51.2406 70.3528 51.4642 70.3044Z" fill="#007934"/>
<path fill-rule="evenodd" clip-rule="evenodd" d="M0 105V0H105V104.997H104.075C69.3839 104.998 34.6915 105 0 105Z" fill="#007934"/>
<path fill-rule="evenodd" clip-rule="evenodd" d="M22.591 78.0564C22.5836 77.4713 22.6224 76.8818 22.5603 76.3026C22.3637 74.4512 21.0829 73.284 19.3303 73.3152C17.5239 73.3465 16.4351 74.434 16.2833 76.3593C16.2527 76.5297 16.1959 76.7002 16.1959 76.8707C16.1899 79.1575 16.1914 81.4436 16.1967 83.7304C16.1967 83.7848 16.2543 83.8391 16.2819 83.8876H22.591V78.0564ZM16.2975 90.2575C16.2646 90.4615 16.2041 90.6655 16.2033 90.8695C16.1959 92.7186 16.1989 94.5678 16.1989 96.4564H8.52521V95.8727C8.52521 89.5564 8.52371 83.2398 8.52595 76.9242C8.52671 74.6113 8.98729 72.4198 10.3586 70.4998C12.3549 67.7037 15.1738 66.4301 18.5377 66.2269C21.9652 66.0198 25.0494 66.8223 27.5146 69.3571C29.3563 71.251 30.255 73.5854 30.2834 76.1574C30.3596 82.9057 30.3088 89.6561 30.3088 96.4504H22.6142V90.2382H16.4075C16.3648 90.2092 16.3283 90.2159 16.2975 90.2575Z" fill="#FDFEFD"/>
<path fill-rule="evenodd" clip-rule="evenodd" d="M75.4627 66.7369V96.4819H67.7576V85.2299H61.6616V96.4595H53.9317V66.6968H61.6721V78.0269H67.7642V66.7369H75.4627Z" fill="#FDFDFD"/>
<path fill-rule="evenodd" clip-rule="evenodd" d="M94.7945 66.7213V73.5938H94.1387C91.8634 73.5938 89.5874 73.5915 87.3121 73.596C87.0063 73.5968 86.6945 73.5931 86.3969 73.6504C85.2776 73.8633 84.9038 74.7969 85.6993 75.5986C86.4927 76.3987 87.4086 77.0837 88.3089 77.7693C90.5946 79.5104 92.9581 81.1565 95.1765 82.9773C96.3011 83.9004 96.7415 85.32 96.8783 86.7686C97.0548 88.6482 96.8012 90.4735 95.9391 92.1679C94.9029 94.2053 93.2227 95.4717 90.9885 95.957C89.9665 96.1797 88.9197 96.391 87.8804 96.4082C84.494 96.4647 81.1054 96.4296 77.6764 96.4296V89.5974H78.3598C80.7892 89.5974 83.2178 89.6161 85.6462 89.5847C86.2706 89.5773 86.9218 89.5006 87.5095 89.3042C88.5249 88.9654 88.8532 87.9523 88.1271 87.1818C87.2359 86.2386 86.2138 85.4071 85.1902 84.6002C83.4764 83.2497 81.7126 81.964 79.9787 80.639C78.128 79.2246 77.3751 77.278 77.4401 75.0299C77.4716 73.9332 77.6151 72.7988 77.9515 71.7596C78.8152 69.0915 80.9402 67.7806 83.5122 67.1039C84.4132 66.8664 85.3652 66.7377 86.2967 66.7205C89.0094 66.6693 91.7229 66.6989 94.4362 66.6983C94.5409 66.6983 94.6464 66.7109 94.7945 66.7213Z" fill="#FDFDFD"/>
<path fill-rule="evenodd" clip-rule="evenodd" d="M51.4639 73.7059C51.2404 73.755 51.0169 73.8429 50.7925 73.8458C49.5887 73.863 48.3841 73.8258 47.1819 73.8682C43.0628 74.0149 40.3433 76.6032 40.1063 80.6968C40.0389 81.8558 40.1236 83.0641 40.3822 84.1941C41.0664 87.1836 43.4822 89.0603 46.8221 89.2881C48.1082 89.3753 49.4032 89.3276 50.6938 89.3403C50.9308 89.3425 51.1679 89.3403 51.4617 89.3403V96.4622C48.6817 96.3773 45.8929 96.8061 43.1554 96.1644C38.089 94.9771 34.6174 91.8512 32.974 87.0043C31.0008 81.186 31.8202 75.7352 36.0754 71.0521C38.3888 68.5061 41.2959 67.0284 44.7436 66.8073C46.9649 66.6652 49.2007 66.7515 51.4296 66.7344C51.4407 69.0577 51.452 71.3819 51.4639 73.7059Z" fill="#FDFDFD"/>
<path fill-rule="evenodd" clip-rule="evenodd" d="M16.2833 76.3592C16.4343 74.4348 17.5229 73.3465 19.3302 73.3153C21.082 73.2847 22.3636 74.4511 22.5603 76.3025C22.6224 76.8817 22.5835 77.4721 22.5909 78.0565C22.5512 79.686 22.4817 81.3155 22.4885 82.945C22.4914 83.5622 22.2858 83.7245 21.6959 83.7111C20.1662 83.6768 18.6349 83.6806 17.1042 83.7097C16.5644 83.72 16.3812 83.5496 16.3886 83.0039C16.4157 81.0669 16.4036 79.1292 16.3939 77.1915C16.3925 76.9137 16.3221 76.6368 16.2833 76.3592Z" fill="#007934"/>
</g>
<defs>
<clipPath id="clip0_91_1420">
<rect width="105" height="105" fill="white"/>
</clipPath>
</defs>
</svg>
